<svg xmlns="http://www.w3.org/2000/svg" width="16" height="16" viewBox="0 0 16 16" fill="none">
<path d="M4.66797 5.99967C4.66797 5.63149 4.96645 5.33301 5.33464 5.33301C5.70282 5.33301 6.0013 5.63149 6.0013 5.99967C6.0013 6.36786 5.70282 6.66634 5.33464 6.66634C4.96645 6.66634 4.66797 6.36786 4.66797 5.99967Z" fill="#737373"/>
<path fill-rule="evenodd" clip-rule="evenodd" d="M5.33318 7.33301C5.70137 7.33221 6.0005 7.63001 6.0013 7.99821L6.00713 10.6649C6.00793 11.0331 5.71011 11.3322 5.34192 11.333C4.97373 11.3338 4.6746 11.0359 4.6738 10.6677L4.66797 8.00114C4.66717 7.63294 4.96499 7.33381 5.33318 7.33301ZM8.47237 7.52794C8.35177 7.40748 8.18524 7.33301 8.0013 7.33301C7.6331 7.33301 7.33464 7.63148 7.33464 7.99968V10.6663C7.33464 11.0345 7.6331 11.333 8.0013 11.333C8.3695 11.333 8.66797 11.0345 8.66797 10.6663V9.33301C8.66797 8.96481 8.96644 8.66634 9.33464 8.66634C9.70284 8.66634 10.0013 8.96481 10.0013 9.33301V10.6663C10.0013 11.0345 10.2998 11.333 10.668 11.333C11.0362 11.333 11.3346 11.0345 11.3346 10.6663V9.33301C11.3346 8.22841 10.4392 7.33301 9.33464 7.33301C9.0259 7.33301 8.73344 7.40301 8.47237 7.52794Z" fill="#737373"/>
<path fill-rule="evenodd" clip-rule="evenodd" d="M2 4.66667C2 3.19391 3.19391 2 4.66667 2H11.3333C12.8061 2 14 3.19391 14 4.66667V11.3333C14 12.8061 12.8061 14 11.3333 14H4.66667C3.19391 14 2 12.8061 2 11.3333V4.66667ZM4.66667 3.33333C3.93029 3.33333 3.33333 3.93029 3.33333 4.66667V11.3333C3.33333 12.0697 3.93029 12.6667 4.66667 12.6667H11.3333C12.0697 12.6667 12.6667 12.0697 12.6667 11.3333V4.66667C12.6667 3.93029 12.0697 3.33333 11.3333 3.33333H4.66667Z" fill="#737373"/>
</svg>