<svg width="32" height="32" viewBox="0 0 32 32" fill="none" xmlns="http://www.w3.org/2000/svg">
<path d="M14.505 5.87299C10.568 8.39299 8.60002 11.43 8.60002 14.98C8.60002 16.085 8.79302 16.637 9.17702 16.637L9.57302 16.53C9.88502 16.41 10.136 16.35 10.329 16.35C11.456 16.35 12.399 16.76 13.154 17.58C13.91 18.4 14.288 19.41 14.288 20.616C14.288 21.773 13.878 22.756 13.063 23.563C12.247 24.37 11.263 24.773 10.111 24.773C8.50302 24.773 7.17602 24.113 6.13102 22.79C5.08802 21.47 4.56702 19.81 4.56702 17.813C4.56702 15.553 5.00902 13.486 5.89702 11.61C6.78702 9.73499 8.14102 8.03999 9.96502 6.52499C11.789 5.01099 12.953 4.25299 13.457 4.25299C13.793 4.25299 14.069 4.41499 14.285 4.73899C14.501 5.06199 14.609 5.34399 14.609 5.58399L14.502 5.87199L14.505 5.87299ZM27.465 5.87299C23.528 8.39299 21.561 11.429 21.561 14.981C21.561 16.086 21.754 16.638 22.138 16.638L22.534 16.531C22.846 16.411 23.097 16.351 23.29 16.351C24.393 16.351 25.33 16.761 26.097 17.581C26.867 18.401 27.249 19.411 27.249 20.617C27.249 21.774 26.839 22.757 26.024 23.564C25.208 24.371 24.224 24.774 23.072 24.774C21.464 24.774 20.137 24.114 19.092 22.791C18.049 21.471 17.528 19.811 17.528 17.814C17.528 15.53 17.976 13.444 18.878 11.558C19.778 9.67099 21.133 7.98099 22.945 6.49099C24.76 4.99999 25.917 4.25399 26.42 4.25399C26.757 4.25399 27.033 4.41599 27.25 4.73999C27.465 5.06399 27.573 5.34599 27.573 5.58599L27.465 5.87299Z" fill="black"/>
</svg>
