<?xml version="1.0" standalone="no"?>
<!DOCTYPE svg PUBLIC "-//W3C//DTD SVG 20010904//EN"
 "http://www.w3.org/TR/2001/REC-SVG-20010904/DTD/svg10.dtd">
<svg version="1.0" xmlns="http://www.w3.org/2000/svg"
 width="712.000000pt" height="712.000000pt" viewBox="0 0 712.000000 712.000000"
 preserveAspectRatio="xMidYMid meet">
<metadata>
Created by potrace 1.14, written by Peter Selinger 2001-2017
</metadata>
<g transform="translate(0.000000,712.000000) scale(0.100000,-0.100000)"
fill="#000000" stroke="none">
<path d="M3825 7093 c-63 -12 -136 -32 -163 -42 -28 -11 -53 -17 -56 -14 -3 4
-6 1 -6 -5 0 -7 -6 -12 -14 -12 -30 0 -266 -134 -266 -151 0 -5 -5 -9 -10 -9
-33 0 -300 -281 -300 -316 0 -4 -6 -15 -14 -23 -21 -24 -87 -151 -79 -151 5 0
3 -4 -3 -8 -14 -9 -80 -202 -88 -257 -3 -22 -8 -51 -11 -65 -4 -14 -8 -80 -10
-148 -3 -67 -7 -127 -10 -132 -3 -5 -1 -11 4 -14 5 -3 6 -21 2 -38 -4 -18 -4
-45 0 -59 3 -15 3 -32 -1 -39 -4 -7 -4 -27 0 -45 4 -18 4 -38 0 -45 -4 -7 -4
-27 0 -45 4 -18 4 -39 0 -45 -4 -7 -4 -26 0 -41 5 -16 5 -31 0 -34 -4 -3 -4
-20 0 -39 4 -19 4 -40 0 -46 -4 -7 -4 -26 0 -41 5 -16 5 -29 0 -29 -5 0 -5
-13 0 -29 4 -15 4 -34 0 -41 -4 -6 -4 -26 -1 -44 4 -17 6 -42 4 -56 -4 -38 -5
-89 -2 -156 1 -34 -1 -66 -5 -72 -3 -6 -2 -13 3 -16 5 -3 6 -21 2 -38 -4 -18
-4 -45 0 -59 3 -15 3 -32 -1 -39 -4 -7 -4 -27 0 -46 4 -19 4 -36 0 -39 -5 -3
-5 -18 0 -34 4 -15 4 -34 0 -41 -4 -6 -4 -26 -1 -44 4 -17 6 -42 4 -56 -4 -38
-5 -89 -2 -156 1 -34 -1 -66 -5 -72 -3 -6 -2 -13 3 -16 5 -3 6 -21 2 -38 -4
-18 -4 -45 0 -59 3 -15 3 -32 -1 -39 -4 -7 -4 -27 0 -45 4 -18 4 -38 0 -45 -4
-7 -4 -27 0 -45 4 -18 4 -39 0 -45 -4 -7 -4 -26 0 -41 5 -16 5 -31 0 -34 -4
-3 -4 -20 0 -39 4 -19 4 -40 0 -46 -4 -7 -4 -26 0 -41 5 -16 5 -29 0 -29 -5 0
-5 -13 0 -29 4 -15 4 -34 0 -41 -4 -6 -4 -26 -1 -44 4 -17 6 -42 4 -56 -4 -38
-5 -89 -2 -156 1 -34 -1 -66 -5 -72 -3 -6 -2 -13 3 -16 5 -3 6 -21 2 -38 -4
-18 -4 -45 0 -59 3 -15 3 -32 -1 -39 -4 -7 -4 -27 0 -45 4 -18 4 -38 0 -45 -4
-7 -4 -27 0 -45 4 -18 4 -39 0 -45 -4 -7 -4 -26 0 -41 5 -16 5 -31 0 -34 -4
-3 -4 -20 0 -39 4 -19 4 -40 0 -46 -4 -7 -4 -26 0 -41 5 -16 5 -29 0 -29 -5 0
-5 -13 0 -29 4 -15 4 -34 0 -41 -4 -6 -4 -26 -1 -44 4 -17 6 -42 4 -56 -4 -38
-5 -89 -2 -156 1 -34 -1 -66 -5 -72 -3 -6 -2 -13 3 -16 5 -3 6 -21 2 -38 -4
-18 -4 -45 0 -59 3 -15 3 -32 -1 -39 -4 -7 -4 -26 -1 -44 4 -17 5 -42 4 -56
-2 -14 -3 -46 -3 -72 0 -27 0 -56 0 -65 0 -10 0 -29 1 -43 1 -31 1 -66 0 -103
-1 -15 -1 -39 -2 -55 0 -15 -1 -38 -1 -52 0 -14 1 -37 1 -53 1 -15 1 -39 2
-55 1 -34 1 -70 0 -105 -1 -15 -1 -39 -2 -55 -1 -34 -1 -70 0 -105 1 -15 1
-39 2 -55 1 -34 1 -70 0 -105 -1 -15 -1 -39 -2 -55 0 -15 -1 -38 -1 -52 0 -14
1 -37 1 -52 1 -16 1 -40 2 -55 1 -35 1 -71 0 -106 -1 -15 -1 -39 -2 -55 -1
-31 -1 -52 2 -137 1 -33 0 -64 -1 -70 -1 -5 -1 -14 0 -20 1 -5 1 -32 1 -60 -2
-91 3 -185 9 -192 3 -3 4 -7 15 -39 10 -32 95 -104 140 -120 70 -24 329 -3
428 35 15 6 27 8 27 5 0 -2 13 2 29 11 17 8 38 16 48 18 36 7 242 114 263 137
3 3 25 19 49 35 70 47 201 182 269 276 34 47 62 91 62 97 0 5 3 12 8 14 21 9
121 250 135 328 3 14 8 36 11 50 13 55 17 89 22 180 6 129 7 178 0 188 -2 4
-1 14 4 22 4 7 5 23 0 35 -5 12 -5 28 0 35 4 7 4 26 0 41 -5 16 -5 31 0 34 4
3 4 20 0 39 -4 19 -4 39 0 46 4 7 4 27 0 45 -4 18 -4 39 0 46 5 7 5 22 0 34
-5 12 -5 28 0 35 4 7 4 26 0 41 -5 16 -5 31 0 34 4 3 4 20 0 39 -4 19 -4 39 0
46 4 7 4 27 0 46 -4 19 -4 36 0 39 5 3 5 18 0 34 -4 15 -4 34 0 41 5 7 5 23 0
35 -5 12 -5 27 0 34 4 7 4 27 1 45 -4 17 -6 40 -5 51 1 11 3 32 3 48 1 15 1
39 2 55 0 15 2 36 3 47 1 11 -1 35 -5 53 -4 17 -3 34 1 37 4 3 4 21 0 40 -4
19 -4 35 0 35 4 0 4 16 0 35 -4 19 -4 37 0 40 4 3 5 20 1 37 -4 18 -6 42 -5
53 1 11 3 32 3 47 1 16 1 40 2 55 0 16 2 37 3 48 1 11 -1 35 -5 53 -4 17 -3
34 1 37 5 3 5 18 0 34 -4 15 -4 34 0 41 5 7 5 23 0 35 -5 12 -5 27 0 34 4 7 4
28 0 46 -4 18 -4 38 0 45 4 7 4 27 0 46 -4 19 -4 36 0 39 5 3 5 18 0 34 -4 15
-4 34 0 41 5 7 5 23 0 35 -5 12 -5 27 0 34 4 7 4 27 1 45 -4 17 -6 40 -5 51 1
11 3 32 3 48 1 15 1 39 2 55 0 15 2 36 3 47 1 11 -1 35 -5 53 -4 17 -3 34 1
37 4 3 4 21 0 40 -4 19 -4 35 0 35 4 0 4 16 0 35 -4 19 -4 37 0 40 4 3 5 20 1
37 -4 18 -6 42 -5 53 1 11 3 32 3 48 1 15 1 39 2 55 0 15 2 36 3 47 1 11 -1
35 -5 53 -4 17 -3 34 1 37 5 3 5 18 0 34 -4 15 -4 34 0 41 5 7 5 23 0 35 -5
12 -5 27 0 34 4 7 4 28 0 46 -4 18 -4 38 0 45 4 7 4 27 0 46 -4 19 -4 36 0 39
5 3 5 18 0 34 -4 15 -4 34 0 41 5 7 5 23 0 35 -5 12 -5 27 0 34 4 7 4 27 1 45
-4 17 -6 40 -5 51 1 11 3 32 3 48 1 15 1 39 2 55 0 15 2 36 3 47 1 11 -1 35
-5 53 -4 17 -3 34 1 37 4 3 4 21 0 40 -4 19 -4 35 0 35 4 0 4 16 0 35 -4 19
-4 37 0 40 4 3 5 20 1 37 -4 18 -6 42 -5 53 1 11 3 32 3 48 1 15 1 39 2 55 0
15 2 36 3 47 1 11 -1 35 -5 53 -4 17 -3 34 1 37 5 3 5 18 0 34 -4 15 -4 34 0
41 5 7 5 23 0 35 -5 12 -5 27 0 34 4 7 4 28 0 46 -4 18 -4 38 0 45 4 7 4 27 0
46 -4 19 -4 36 0 39 5 3 5 18 0 34 -4 15 -4 34 0 41 5 7 5 23 0 35 -5 12 -5
27 0 34 4 7 4 27 1 45 -4 17 -6 40 -5 51 1 11 3 32 3 48 1 15 1 39 2 55 0 15
2 36 3 47 1 11 -1 35 -5 53 -4 17 -3 34 1 37 4 3 4 21 0 40 -4 19 -4 35 0 35
4 0 4 16 0 35 -4 19 -4 37 0 40 4 3 5 20 1 37 -4 18 -6 42 -5 53 3 24 4 63 4
88 0 9 0 41 0 70 0 52 -6 140 -10 145 -1 1 -3 6 -4 10 0 5 -14 29 -30 54 -21
34 -45 54 -87 76 -54 28 -66 30 -154 29 -56 0 -144 -11 -210 -24z"/>
<path d="M1788 5875 c-2 -2 -26 -6 -53 -9 -122 -13 -301 -72 -429 -141 -59
-31 -140 -86 -144 -97 -2 -4 -8 -8 -13 -8 -30 0 -217 -195 -283 -295 -72 -108
-117 -191 -109 -198 3 -4 1 -7 -5 -7 -7 0 -12 -7 -12 -15 0 -8 -6 -29 -14 -47
-22 -51 -31 -76 -39 -113 -3 -11 -10 -38 -15 -60 -6 -22 -14 -56 -18 -75 -5
-19 -9 -776 -11 -1682 -3 -1539 -2 -1650 14 -1690 38 -94 130 -156 231 -154
28 0 52 -3 52 -7 0 -5 5 -5 11 -1 6 3 26 8 44 10 88 8 131 15 188 30 34 9 67
17 72 18 27 5 141 51 147 60 4 6 8 8 8 3 0 -9 153 73 158 85 2 4 10 8 18 8 8
0 14 5 14 10 0 6 5 10 11 10 30 0 240 201 294 281 17 24 33 46 38 47 4 2 7 10
7 17 0 7 4 15 8 17 21 8 131 241 147 308 1 8 10 42 18 75 24 93 42 250 37 320
-1 11 -1 26 0 33 1 18 1 42 1 97 -1 28 0 73 0 102 1 28 -2 56 -5 62 -4 5 -2
12 3 15 6 4 6 18 1 35 -4 15 -4 34 0 41 4 7 4 26 0 41 -5 16 -5 31 0 34 5 3 5
18 1 33 -5 15 -5 36 -1 47 4 11 4 32 -1 47 -4 16 -3 30 2 34 5 3 7 10 3 15 -5
9 -6 34 -3 156 1 28 -2 56 -6 62 -3 6 -1 11 5 11 6 0 8 5 5 11 -9 13 -10 107
-2 115 3 3 1 18 -3 34 -4 16 -6 31 -3 34 8 8 7 102 -1 115 -4 6 -2 11 4 11 6
0 8 5 5 11 -7 10 -8 74 -2 134 1 17 -1 42 -5 57 -3 15 -3 30 2 33 5 3 5 18 1
33 -5 15 -5 36 -1 47 4 11 4 32 -1 47 -4 15 -4 30 1 33 5 3 5 18 1 33 -4 15
-5 38 -1 52 4 14 3 37 -1 52 -4 15 -4 30 1 33 5 3 5 18 2 33 -4 15 -6 41 -5
57 6 60 5 124 -2 134 -3 6 -1 11 5 11 6 0 8 5 5 11 -4 6 -7 33 -6 60 1 27 1
71 2 98 1 27 -2 54 -5 60 -4 5 -2 12 3 15 6 4 6 18 1 35 -4 15 -4 34 0 41 4 7
4 26 0 41 -5 16 -5 31 0 34 5 3 5 18 1 33 -5 15 -5 36 -1 47 4 11 4 32 -1 47
-4 16 -3 30 2 34 5 3 7 10 3 15 -5 9 -6 34 -3 156 1 28 -2 56 -6 62 -3 6 -1
11 5 11 6 0 8 5 5 11 -9 13 -10 107 -3 115 3 3 2 21 -2 40 -4 18 -5 34 -1 34
7 0 -1 138 -9 148 -1 1 -3 5 -5 10 -12 45 -86 125 -134 144 -23 10 -215 21
-223 13z"/>
<path d="M6108 5875 c-2 -2 -26 -6 -53 -9 -40 -4 -203 -43 -250 -60 -100 -35
-313 -152 -323 -178 -2 -4 -8 -8 -13 -8 -28 0 -224 -205 -291 -304 -104 -157
-178 -343 -202 -511 -9 -58 -18 -148 -17 -165 2 -44 0 -114 -4 -119 -2 -4 0
-13 5 -21 5 -8 5 -21 0 -30 -5 -9 -5 -22 0 -29 4 -8 4 -27 0 -42 -5 -16 -5
-29 0 -29 5 0 5 -12 1 -27 -4 -16 -5 -39 -1 -53 3 -14 3 -42 0 -62 -4 -20 -4
-42 1 -49 4 -7 4 -20 -1 -29 -5 -9 -5 -22 0 -29 4 -8 4 -27 0 -42 -5 -16 -5
-29 0 -29 5 0 5 -12 1 -27 -4 -16 -5 -39 -1 -53 3 -14 3 -42 0 -62 -4 -20 -4
-42 1 -49 4 -7 4 -20 -1 -29 -5 -9 -5 -22 0 -29 4 -8 4 -27 0 -42 -5 -16 -5
-29 0 -29 5 0 5 -12 1 -27 -4 -16 -5 -39 -1 -53 3 -14 3 -42 0 -62 -4 -20 -4
-42 1 -49 4 -7 4 -20 -1 -29 -5 -9 -5 -22 0 -29 4 -8 4 -27 0 -42 -5 -16 -5
-29 0 -29 5 0 5 -12 1 -27 -4 -16 -5 -39 -1 -53 3 -14 3 -42 0 -62 -4 -20 -4
-42 1 -49 4 -7 4 -20 -1 -29 -5 -9 -5 -22 0 -29 4 -8 4 -27 0 -42 -5 -16 -5
-29 0 -29 5 0 5 -12 1 -27 -4 -16 -5 -39 -1 -53 3 -14 3 -42 0 -62 -4 -20 -4
-42 1 -49 4 -7 4 -20 -1 -29 -5 -9 -5 -22 0 -29 4 -8 4 -27 0 -42 -5 -16 -5
-29 0 -29 5 0 5 -12 1 -27 -4 -16 -5 -39 -1 -53 3 -14 3 -42 0 -62 -4 -20 -4
-42 1 -49 4 -7 4 -20 -1 -29 -5 -9 -5 -22 0 -29 4 -8 4 -27 0 -42 -5 -16 -5
-29 0 -29 5 0 5 -12 1 -27 -4 -16 -5 -39 -1 -53 3 -14 3 -42 0 -62 -4 -20 -4
-42 1 -49 4 -7 4 -20 -1 -29 -5 -9 -5 -22 0 -29 4 -8 4 -27 0 -42 -5 -16 -5
-29 0 -29 5 0 5 -13 0 -29 -4 -16 -6 -32 -4 -34 7 -7 9 -106 2 -112 -3 -4 -2
-19 2 -35 4 -16 6 -31 3 -34 -4 -3 -5 -29 -4 -58 1 -29 1 -60 1 -68 0 -8 0
-24 0 -35 1 -11 1 -27 0 -35 0 -8 0 -24 0 -35 1 -11 1 -26 1 -32 -1 -7 -1 -19
-2 -25 0 -7 2 -45 5 -85 3 -59 10 -80 34 -115 38 -55 59 -73 107 -94 42 -18
51 -20 100 -24 32 -3 154 7 195 15 14 3 41 8 60 11 19 3 73 17 120 32 47 14
88 25 93 24 4 -1 7 2 7 7 0 7 23 18 40 18 21 0 231 128 238 145 2 4 8 8 13 8
23 0 209 184 256 253 15 23 31 44 36 45 4 2 7 8 7 12 0 5 12 26 26 47 57 83
143 302 157 398 4 22 10 51 14 65 4 14 9 768 10 1676 l3 1651 -30 58 c-33 63
-44 74 -105 107 -32 18 -59 22 -137 24 -53 1 -98 0 -100 -1z"/>
</g>
</svg>
